<svg width="16" height="17" viewBox="0 0 16 17" fill="none" xmlns="http://www.w3.org/2000/svg">
<path d="M13.4139 8.20326V5.42921C13.4139 2.80492 12.8018 2.14722 10.3403 2.14722H5.41736C2.95587 2.14722 2.34375 2.80492 2.34375 5.42921V12.7616C2.34375 14.4937 3.29449 14.904 4.44709 13.6667L4.45359 13.6602C4.98757 13.0937 5.80155 13.1393 6.26389 13.7579L6.9216 14.637" stroke="white" style="stroke:white;stroke:white;stroke-opacity:1;" stroke-width="0.976782" stroke-linecap="round" stroke-linejoin="round"/>
<path d="M5.27344 5.40308H10.4829" stroke="white" style="stroke:white;stroke:white;stroke-opacity:1;" stroke-width="0.976782" stroke-linecap="round" stroke-linejoin="round"/>
<path d="M5.92578 8.00781H9.83291" stroke="white" style="stroke:white;stroke:white;stroke-opacity:1;" stroke-width="0.976782" stroke-linecap="round" stroke-linejoin="round"/>
<path d="M11.9232 10.463L9.61801 12.7682C9.52684 12.8594 9.44218 13.0287 9.42264 13.1524L9.29892 14.0315C9.25333 14.3506 9.47474 14.572 9.79382 14.5264L10.6729 14.4027C10.7967 14.3831 10.9725 14.2985 11.0571 14.2073L13.3623 11.9021C13.7596 11.5049 13.9484 11.0426 13.3623 10.4565C12.7828 9.87693 12.3204 10.0658 11.9232 10.463Z" stroke="white" style="stroke:white;stroke:white;stroke-opacity:1;" stroke-width="0.976782" stroke-miterlimit="10" stroke-linecap="round" stroke-linejoin="round"/>
<path d="M11.5898 10.7952C11.7852 11.4984 12.3322 12.0454 13.0355 12.2408" stroke="white" style="stroke:white;stroke:white;stroke-opacity:1;" stroke-width="0.976782" stroke-miterlimit="10" stroke-linecap="round" stroke-linejoin="round"/>
</svg>
