<svg width="16" height="16" viewBox="0 0 16 16" fill="none" xmlns="http://www.w3.org/2000/svg">
<path d="M14.1684 7.10479L13.5303 9.82675C12.9833 12.1775 11.9023 13.1283 9.8706 12.9329C9.54501 12.9069 9.19337 12.8483 8.81568 12.7571L7.72168 12.4966C5.00623 11.8519 4.1662 10.5105 4.80436 7.78853L5.44253 5.06006C5.57276 4.50655 5.72905 4.02467 5.9244 3.62744C6.68629 2.05157 7.98216 1.6283 10.1571 2.14273L11.2446 2.3967C13.9731 3.03486 14.8066 4.38282 14.1684 7.10479Z" stroke="white" style="stroke:white;stroke:white;stroke-opacity:1;" stroke-width="0.976782" stroke-linecap="round" stroke-linejoin="round"/>
<path d="M9.87106 12.9329C9.46732 13.2064 8.9594 13.4343 8.34077 13.6362L7.31189 13.9748C4.72668 14.8083 3.36569 14.1116 2.52566 11.5264L1.69214 8.95416C0.85862 6.36894 1.54888 5.00145 4.1341 4.16793L5.16297 3.82931C5.42996 3.74466 5.68392 3.67302 5.92486 3.62744C5.72951 4.02467 5.57322 4.50655 5.44298 5.06005L4.80482 7.78853C4.16665 10.5105 5.00669 11.8519 7.72214 12.4966L8.81614 12.7571C9.19383 12.8483 9.54547 12.9069 9.87106 12.9329Z" stroke="white" style="stroke:white;stroke:white;stroke-opacity:1;" stroke-width="0.976782" stroke-linecap="round" stroke-linejoin="round"/>
<path d="M8.29492 5.86108L11.4532 6.66205" stroke="white" style="stroke:white;stroke:white;stroke-opacity:1;" stroke-width="0.976782" stroke-linecap="round" stroke-linejoin="round"/>
<path d="M7.6582 8.3811L9.54665 8.86298" stroke="white" style="stroke:white;stroke:white;stroke-opacity:1;" stroke-width="0.976782" stroke-linecap="round" stroke-linejoin="round"/>
</svg>
