<svg width="16" height="17" viewBox="0 0 16 17" fill="none" xmlns="http://www.w3.org/2000/svg">
<path d="M13.0878 4.96656V11.4263C13.0878 12.4161 12.9966 13.1194 12.7622 13.6208C12.7622 13.6274 12.7557 13.6404 12.7491 13.6469C12.6059 13.8292 12.4171 13.9204 12.1956 13.9204C11.8505 13.9204 11.4338 13.6925 10.9844 13.2106C10.4505 12.6376 9.62995 12.6831 9.16109 13.3083L8.50342 14.1809C8.24295 14.5325 7.8978 14.7083 7.55268 14.7083C7.20755 14.7083 6.8624 14.5325 6.60193 14.1809L5.93774 13.3018C5.4754 12.6831 4.66139 12.6375 4.12742 13.2041L4.1209 13.2106C3.38506 13.9985 2.7339 14.1157 2.35621 13.6469C2.3497 13.6404 2.34317 13.6274 2.34317 13.6208C2.10874 13.1194 2.01758 12.4161 2.01758 11.4263V4.96656C2.01758 3.97675 2.10874 3.27347 2.34317 2.77205C2.34317 2.76554 2.34318 2.75903 2.35621 2.75252C2.72739 2.27715 3.38506 2.39436 4.1209 3.1823L4.12742 3.18882C4.66139 3.75535 5.4754 3.70976 5.93774 3.09114L6.60193 2.21203C6.8624 1.86039 7.20755 1.68457 7.55268 1.68457C7.8978 1.68457 8.24295 1.86039 8.50342 2.21203L9.16109 3.08463C9.62995 3.70977 10.4505 3.75535 10.9844 3.1823C11.4338 2.70042 11.8505 2.47251 12.1956 2.47251C12.4171 2.47251 12.6059 2.57019 12.7491 2.75252C12.7622 2.75903 12.7622 2.76554 12.7622 2.77205C12.9966 3.27347 13.0878 3.97675 13.0878 4.96656Z" stroke="white" style="stroke:white;stroke:white;stroke-opacity:1;" stroke-width="0.976782" stroke-linecap="round" stroke-linejoin="round"/>
<path d="M5.27344 7.05664H10.4829" stroke="white" style="stroke:white;stroke:white;stroke-opacity:1;" stroke-width="0.976782" stroke-linecap="round" stroke-linejoin="round"/>
<path d="M5.27344 9.33594H9.18056" stroke="white" style="stroke:white;stroke:white;stroke-opacity:1;" stroke-width="0.976782" stroke-linecap="round" stroke-linejoin="round"/>
</svg>
