<svg width="24" height="24" viewBox="0 0 24 24" fill="none" xmlns="http://www.w3.org/2000/svg">
<path d="M18 18.8578H17.24C16.44 18.8578 15.68 19.1678 15.12 19.7278L13.41 21.4178C12.63 22.1878 11.36 22.1878 10.58 21.4178L8.87 19.7278C8.31 19.1678 7.54 18.8578 6.75 18.8578H6C4.34 18.8578 3 17.5278 3 15.8878V4.97778C3 3.33778 4.34 2.00781 6 2.00781H18C19.66 2.00781 21 3.33778 21 4.97778V15.8878C21 17.5178 19.66 18.8578 18 18.8578Z" stroke="#292D32" style="stroke:#292D32;stroke:color(display-p3 0.1608 0.1765 0.1961);stroke-opacity:1;" stroke-width="1.5" stroke-miterlimit="10" stroke-linecap="round" stroke-linejoin="round"/>
<path d="M12.0019 10.0037C13.2887 10.0037 14.3319 8.96053 14.3319 7.67371C14.3319 6.38688 13.2887 5.34375 12.0019 5.34375C10.7151 5.34375 9.67188 6.38688 9.67188 7.67371C9.67188 8.96053 10.7151 10.0037 12.0019 10.0037Z" stroke="#292D32" style="stroke:#292D32;stroke:color(display-p3 0.1608 0.1765 0.1961);stroke-opacity:1;" stroke-width="1.5" stroke-linecap="round" stroke-linejoin="round"/>
<path d="M16 15.6662C16 13.8662 14.21 12.4062 12 12.4062C9.79 12.4062 8 13.8662 8 15.6662" stroke="#292D32" style="stroke:#292D32;stroke:color(display-p3 0.1608 0.1765 0.1961);stroke-opacity:1;" stroke-width="1.5" stroke-linecap="round" stroke-linejoin="round"/>
</svg>
